<mxfile host="65bd71144e">
    <diagram id="aW4vHDXydli9S4uxMvaV" name="第 1 页">
        <mxGraphModel dx="945" dy="720" grid="1" gridSize="10" guides="1" tooltips="1" connect="1" arrows="1" fold="1" page="1" pageScale="1" pageWidth="827" pageHeight="1169" math="0" shadow="0">
            <root>
                <mxCell id="0"/>
                <mxCell id="1" parent="0"/>
                <mxCell id="5" value="Small Builder" style="swimlane;fontStyle=0;childLayout=stackLayout;horizontal=1;startSize=30;horizontalStack=0;resizeParent=1;resizeParentMax=0;resizeLast=0;collapsible=1;marginBottom=0;fillColor=#f9f7ed;strokeColor=#36393d;fontColor=#000000;" vertex="1" parent="1">
                    <mxGeometry x="565" y="435" width="140" height="150" as="geometry"/>
                </mxCell>
                <mxCell id="36" value="" style="rounded=0;whiteSpace=wrap;html=1;fillColor=#F9F7ED;strokeColor=#36393D;align=left;" vertex="1" parent="5">
                    <mxGeometry y="30" width="140" height="30" as="geometry"/>
                </mxCell>
                <mxCell id="6" value="+ show() : void&#10;+ buildWall(): void&#10;+ buildDoor(): void&#10;+ buildRoom(): void&#10;+ buildGarden(): void&#10;+ buildSwimpool(): void" style="text;strokeColor=#36393d;fillColor=#f9f7ed;align=left;verticalAlign=middle;spacingLeft=4;spacingRight=4;overflow=hidden;points=[[0,0.5],[1,0.5]];portConstraint=eastwest;rotatable=0;fontColor=#000000;" vertex="1" parent="5">
                    <mxGeometry y="60" width="140" height="90" as="geometry"/>
                </mxCell>
                <mxCell id="7" value="Big Builder" style="swimlane;fontStyle=0;childLayout=stackLayout;horizontal=1;startSize=30;horizontalStack=0;resizeParent=1;resizeParentMax=0;resizeLast=0;collapsible=1;marginBottom=0;fillColor=#f9f7ed;strokeColor=#36393d;fontColor=#000000;" vertex="1" parent="1">
                    <mxGeometry x="380" y="435" width="150" height="150" as="geometry"/>
                </mxCell>
                <mxCell id="35" value="" style="rounded=0;whiteSpace=wrap;html=1;fillColor=#F9F7ED;strokeColor=#36393D;align=left;" vertex="1" parent="7">
                    <mxGeometry y="30" width="150" height="30" as="geometry"/>
                </mxCell>
                <mxCell id="8" value="+ show() : void&#10;+ buildWall(): void&#10;+ buildDoor(): void&#10;+ buildRoom(): void&#10;+ buildGarden(): void&#10;+ buildSwimpool(): void" style="text;strokeColor=#36393d;fillColor=#f9f7ed;align=left;verticalAlign=middle;spacingLeft=4;spacingRight=4;overflow=hidden;points=[[0,0.5],[1,0.5]];portConstraint=eastwest;rotatable=0;fontColor=#000000;" vertex="1" parent="7">
                    <mxGeometry y="60" width="150" height="90" as="geometry"/>
                </mxCell>
                <mxCell id="13" value="" style="endArrow=block;html=1;fontColor=#FFFFFF;exitX=0.5;exitY=0;exitDx=0;exitDy=0;endFill=0;entryX=0.25;entryY=1;entryDx=0;entryDy=0;" edge="1" parent="1" source="7" target="32">
                    <mxGeometry width="50" height="50" relative="1" as="geometry">
                        <mxPoint x="442.5" y="405" as="sourcePoint"/>
                        <mxPoint x="525.56" y="395" as="targetPoint"/>
                    </mxGeometry>
                </mxCell>
                <mxCell id="14" value="" style="endArrow=block;html=1;fontColor=#FFFFFF;exitX=0.5;exitY=0;exitDx=0;exitDy=0;endFill=0;entryX=0.75;entryY=1;entryDx=0;entryDy=0;" edge="1" parent="1" source="5" target="32">
                    <mxGeometry width="50" height="50" relative="1" as="geometry">
                        <mxPoint x="462.5" y="415" as="sourcePoint"/>
                        <mxPoint x="562.5" y="395" as="targetPoint"/>
                    </mxGeometry>
                </mxCell>
                <mxCell id="32" value=" Builder" style="swimlane;fontStyle=0;childLayout=stackLayout;horizontal=1;startSize=30;horizontalStack=0;resizeParent=1;resizeParentMax=0;resizeLast=0;collapsible=1;marginBottom=0;fillColor=#F0F0F0;strokeColor=#36393D;fontColor=#000000;verticalAlign=top;" vertex="1" parent="1">
                    <mxGeometry x="472.5" y="212" width="140" height="170" as="geometry"/>
                </mxCell>
                <mxCell id="34" value="&lt;font color=&quot;#000000&quot;&gt;&amp;nbsp;# house: House&lt;/font&gt;" style="rounded=0;whiteSpace=wrap;html=1;fillColor=#F9F7ED;strokeColor=#36393D;align=left;" vertex="1" parent="32">
                    <mxGeometry y="30" width="140" height="30" as="geometry"/>
                </mxCell>
                <mxCell id="33" value="- reset(): void&#10;+ show() : void&#10;+ buildWall(): void&#10;+ buildDoor(): void&#10;+ buildRoom(): void&#10;+ buildGarden(): void&#10;+ buildSwimpool(): void&#10;" style="text;strokeColor=#36393d;fillColor=#F9F7ED;align=left;verticalAlign=top;spacingLeft=4;spacingRight=4;overflow=hidden;points=[[0,0.5],[1,0.5]];portConstraint=eastwest;rotatable=0;fontColor=#000000;" vertex="1" parent="32">
                    <mxGeometry y="60" width="140" height="110" as="geometry"/>
                </mxCell>
                <mxCell id="37" value="Director" style="swimlane;fontStyle=0;childLayout=stackLayout;horizontal=1;startSize=30;horizontalStack=0;resizeParent=1;resizeParentMax=0;resizeLast=0;collapsible=1;marginBottom=0;fillColor=#F0F0F0;strokeColor=#36393D;fontColor=#000000;verticalAlign=top;" vertex="1" parent="1">
                    <mxGeometry x="466" y="30" width="150" height="120" as="geometry"/>
                </mxCell>
                <mxCell id="38" value="&amp;nbsp;- builder: Builder" style="rounded=0;whiteSpace=wrap;html=1;fillColor=#F9F7ED;strokeColor=#36393D;align=left;fontColor=#000000;" vertex="1" parent="37">
                    <mxGeometry y="30" width="150" height="30" as="geometry"/>
                </mxCell>
                <mxCell id="39" value="+ setBuilder(builder): void&#10;+ make(): void&#10;+ getBuilding(): void&#10;" style="text;strokeColor=#36393d;fillColor=#F9F7ED;align=left;verticalAlign=top;spacingLeft=4;spacingRight=4;overflow=hidden;points=[[0,0.5],[1,0.5]];portConstraint=eastwest;rotatable=0;fontColor=#000000;" vertex="1" parent="37">
                    <mxGeometry y="60" width="150" height="60" as="geometry"/>
                </mxCell>
                <mxCell id="40" value="" style="endArrow=diamondThin;html=1;fontColor=#000000;exitX=0.5;exitY=0;exitDx=0;exitDy=0;startArrow=none;startFill=0;endFill=0;endSize=12;" edge="1" parent="1" source="32" target="39">
                    <mxGeometry width="50" height="50" relative="1" as="geometry">
                        <mxPoint x="670" y="330" as="sourcePoint"/>
                        <mxPoint x="530" y="150" as="targetPoint"/>
                    </mxGeometry>
                </mxCell>
                <mxCell id="41" value="House" style="swimlane;fontStyle=0;childLayout=stackLayout;horizontal=1;startSize=30;horizontalStack=0;resizeParent=1;resizeParentMax=0;resizeLast=0;collapsible=1;marginBottom=0;fillColor=#f9f7ed;strokeColor=#36393d;fontColor=#000000;" vertex="1" parent="1">
                    <mxGeometry x="705" y="200" width="140" height="200" as="geometry"/>
                </mxCell>
                <mxCell id="42" value="&lt;font color=&quot;#000000&quot;&gt;&amp;nbsp;- wall: number&lt;br&gt;&amp;nbsp;- door: number&lt;br&gt;&amp;nbsp;- room: number&lt;br&gt;&amp;nbsp;- hasGarden: boolean&lt;br&gt;&amp;nbsp;- hasSwimPool: boolean&lt;br&gt;&lt;/font&gt;" style="rounded=0;whiteSpace=wrap;html=1;fillColor=#F9F7ED;strokeColor=#36393D;align=left;" vertex="1" parent="41">
                    <mxGeometry y="30" width="140" height="80" as="geometry"/>
                </mxCell>
                <mxCell id="43" value="+ display() : void&#10;+ setWall(): void&#10;+ setDoor(): void&#10;+ setRooms(): void&#10;+ setGarden(): void&#10;+ setSwimPool(): void" style="text;strokeColor=#36393d;fillColor=#f9f7ed;align=left;verticalAlign=middle;spacingLeft=4;spacingRight=4;overflow=hidden;points=[[0,0.5],[1,0.5]];portConstraint=eastwest;rotatable=0;fontColor=#000000;" vertex="1" parent="41">
                    <mxGeometry y="110" width="140" height="90" as="geometry"/>
                </mxCell>
                <mxCell id="44" value="" style="endArrow=diamondThin;html=1;fontColor=#000000;exitX=0.982;exitY=0.345;exitDx=0;exitDy=0;startArrow=none;startFill=0;endFill=0;endSize=12;entryX=0;entryY=1;entryDx=0;entryDy=0;exitPerimeter=0;" edge="1" parent="1" source="33" target="42">
                    <mxGeometry width="50" height="50" relative="1" as="geometry">
                        <mxPoint x="651.01" y="312" as="sourcePoint"/>
                        <mxPoint x="649.9991304347825" y="250" as="targetPoint"/>
                    </mxGeometry>
                </mxCell>
                <mxCell id="46" value="Client" style="rounded=0;whiteSpace=wrap;html=1;fontColor=#000000;strokeColor=#36393D;fillColor=#F9F7ED;fontSize=16;labelBackgroundColor=none;fontStyle=1" vertex="1" parent="1">
                    <mxGeometry x="715" y="50" width="120" height="60" as="geometry"/>
                </mxCell>
                <mxCell id="47" value="" style="endArrow=open;html=1;fontSize=16;fontColor=#000000;endSize=12;strokeWidth=1;exitX=0;exitY=0.5;exitDx=0;exitDy=0;dashed=1;endFill=0;" edge="1" parent="1" source="46">
                    <mxGeometry width="50" height="50" relative="1" as="geometry">
                        <mxPoint x="970" y="212" as="sourcePoint"/>
                        <mxPoint x="610" y="80" as="targetPoint"/>
                    </mxGeometry>
                </mxCell>
                <mxCell id="48" value="" style="endArrow=open;html=1;fontSize=16;fontColor=#000000;endSize=12;strokeWidth=1;exitX=0;exitY=0.5;exitDx=0;exitDy=0;entryX=1;entryY=0.75;entryDx=0;entryDy=0;dashed=1;endFill=0;" edge="1" parent="1" source="46" target="34">
                    <mxGeometry width="50" height="50" relative="1" as="geometry">
                        <mxPoint x="725" y="90" as="sourcePoint"/>
                        <mxPoint x="630" y="90" as="targetPoint"/>
                    </mxGeometry>
                </mxCell>
                <mxCell id="49" value="" style="endArrow=open;html=1;fontSize=16;fontColor=#000000;endSize=12;strokeWidth=1;exitX=0.5;exitY=1;exitDx=0;exitDy=0;entryX=0.5;entryY=0;entryDx=0;entryDy=0;dashed=1;endFill=0;" edge="1" parent="1" source="46" target="41">
                    <mxGeometry width="50" height="50" relative="1" as="geometry">
                        <mxPoint x="725" y="90" as="sourcePoint"/>
                        <mxPoint x="622.5" y="274.5" as="targetPoint"/>
                    </mxGeometry>
                </mxCell>
            </root>
        </mxGraphModel>
    </diagram>
</mxfile>